<svg id="Lager_1" data-name="Lager 1" xmlns="http://www.w3.org/2000/svg" viewBox="0 0 798.79 656.39"><defs><style>.cls-1{fill:#ecc5ad;}.cls-2{fill:#050505;}</style></defs><title>bhagwanlogo3</title><path class="cls-1" d="M719.19,212.75c0.24,37-8,68.52-21,99.15-13.45,31.68-31.92,60.13-53.2,87-2.85,3.6-4.2,3-6.55.05-14-17.77-27.17-36.15-38-56.09-13.57-24.94-24.62-50.85-30.89-78.66-4.6-20.38-6.93-41-5.27-61.84,2.26-28.15,9.47-55.22,20.66-81.2,13.79-32,32.31-61.11,53.89-88.36,2.09-2.64,3.28-3.16,5.86,0a389.17,389.17,0,0,1,43.65,66.09c13.74,26.4,23.73,54.16,28.5,83.63C718.63,193.66,719.73,204.93,719.19,212.75Z" transform="translate(-242.45 -30.6)"/><path class="cls-1" d="M858.2,508.1c-35.22.6-66.51-7.74-96.79-20.5-32.14-13.54-61.17-32.22-88.36-53.93-3.22-2.57-2.73-3.58.25-6,21-17,43.31-32.16,67.43-44.36,25.6-13,52.29-23.08,80.9-27.37,12.34-1.85,24.68-3.2,37.19-3,21.76,0.33,42.95,4.17,63.68,10.42,43.18,13,81,36,116.09,63.76,3.5,2.76,3.61,4.22-.13,7.23-22.66,18.21-46.75,34.15-72.92,46.84s-53.28,21.53-82,25.6A139.27,139.27,0,0,1,858.2,508.1Z" transform="translate(-242.45 -30.6)"/><path class="cls-1" d="M430.21,508.15c-37.63.42-70.07-8.5-101.43-22.22-30.22-13.22-57.71-30.87-83.5-51.32-3.28-2.6-4.16-4.24-.24-7.39a404.57,404.57,0,0,1,56.46-38.36c25.54-14.22,52.43-25.27,81.15-31.14,23-4.7,46.2-6.11,69.77-3C503.93,361.38,549,383,590.53,412.94c6.74,4.86,13.29,10,19.91,15,2.39,1.81,3.14,3.07,0,5.56-23.29,18.71-47.88,35.36-74.92,48.23-25.81,12.28-52.7,21.11-81.06,25.08A141.78,141.78,0,0,1,430.21,508.15Z" transform="translate(-242.45 -30.6)"/><path class="cls-1" d="M722,351.08c6.59-14.93,12.91-29.4,18-44.34a308.94,308.94,0,0,0,14.11-56.89c1.8-12.6,1.86-25.17,1.84-37.79a7,7,0,0,1,3.13-6.23c26.55-20.18,56.3-33.92,88-43.69A357.81,357.81,0,0,1,916.23,148c9.12-.93,8.95-0.81,7.91,8.85a361.62,361.62,0,0,1-25.09,99.57c-8,19.49-18.6,37.5-30.73,54.67-2.6,3.68-5.67,5.06-10.4,5-40.19-.38-78.27,9.17-114.84,25.34C736,344.57,729,347.86,722,351.08Z" transform="translate(-242.45 -30.6)"/><path class="cls-1" d="M562.26,351.25c-9.13-4.08-17.23-7.82-25.43-11.34-25.78-11.08-52.44-18.9-80.42-22-11.09-1.24-22.16-2.22-33.31-1.83a7.21,7.21,0,0,1-6.69-3.39,295.41,295.41,0,0,1-36.74-68.91c-9.53-25.34-15.12-51.57-19.47-78.15-0.78-4.74-.4-9.69-1.41-14.35s1.37-4.57,4.44-4.14c9.19,1.31,18.41,2.47,27.55,4.07,35.27,6.16,69.1,16.74,100.79,33.64a298.79,298.79,0,0,1,31.62,20c2.78,2,3.95,4.39,3.92,8-0.31,39.48,8.42,77.09,23.9,113.25C554.48,334.16,558.18,342.14,562.26,351.25Z" transform="translate(-242.45 -30.6)"/><path class="cls-2" d="M711.7,663.37c7.48-27.21,15.07-54.24,22.24-81.37,1.27-4.82,3.28-6.72,8-5.9a14.9,14.9,0,0,0,2.5,0c11.61,0,11.56,0,14.49,11.46q9.63,37.66,19.35,75.32c1.68-.15,1.48-1.52,1.74-2.54,6.9-26.7,13.87-53.39,20.59-80.14,0.81-3.23,2-4.36,5.28-4.17,4.81,0.28,9.65.07,15.13,0.07-3.11,10.61-6.09,20.87-9.12,31.12-7.35,24.85-14.78,49.67-22,74.55-0.94,3.23-2.15,4.66-5.71,4.31a72.4,72.4,0,0,0-12,0c-3.22.23-4.48-.85-5.34-4.06C760.39,658,753.65,634,747,610c-0.43-1.56-.94-3.1-1.52-5-1.94,1.37-1.92,3.3-2.38,4.87q-10.66,36.08-21.16,72.2c-0.85,3-2,4.35-5.35,4.11-5.3-.39-11.84,1.64-15.61-0.81s-3.52-9.54-5-14.61c-8.5-29.88-16.83-59.8-25.49-89.63-1.3-4.46-.4-5.48,3.92-5,4.59,0.51,10.4-1.86,13.51,1,2.8,2.55,2.83,8.21,3.93,12.54Q701,625.32,710,661.08A2.4,2.4,0,0,0,711.7,663.37Z" transform="translate(-242.45 -30.6)"/><path class="cls-2" d="M938.33,606.14v21.44c0,18-.07,36,0.07,54,0,3.21-.35,4.9-4.17,4.54-4.45-.42-10.44,1.46-13-0.8-3-2.62-.93-8.75-0.94-13.34-0.09-30.31,0-60.62-.12-90.93,0-3.61.63-4.68,4.7-5.21,10.24-1.34,15.92,2.76,21.29,11.42,14.43,23.3,30,45.87,45.37,69,1.51-1.73.91-3.59,0.92-5.21,0-23.48.12-47-.06-70.45,0-3.71.83-5.13,4.67-4.63,4.39,0.58,10.29-1.88,12.83,1,2.18,2.51.76,8.23,0.77,12.53,0,30.64-.06,61.29.11,91.93,0,3.81-1.14,4.22-4.67,4.72-10.16,1.43-15.94-2.58-21.29-11.33-13.45-22-28.17-43.15-42.38-64.65-1-1.47-2-2.93-3-4.4Z" transform="translate(-242.45 -30.6)"/><path class="cls-2" d="M669.31,607.92c-6.17,0-12.32-.07-18.46,0-1.92,0-2.9-.72-4-2.24-8.91-12.66-22.67-17.3-38.21-13-15,4.11-25.44,16.45-26.76,31.22-1,11.54-.16,22.65,7.16,32.25,10.61,13.94,25,16.86,41,12.74,14.41-3.7,21.23-14.34,23.81-28.95-12.21,0-24.14-.2-36,0.11-4.14.11-5.34-.91-5.19-5.13,0.34-9,.09-9.06,9.1-9.06h45c6.43,0,6.1,0,6.49,6.62,1.5,25.23-18.57,48.74-42.75,53.36-27.12,5.18-53.68-7.55-63.21-32-16.63-42.74,14-80.88,53.73-78.86,21.46,1.09,37.93,10,47.54,29.9a13.06,13.06,0,0,1,.73,1.86A5.07,5.07,0,0,1,669.31,607.92Z" transform="translate(-242.45 -30.6)"/><path class="cls-2" d="M343,629.61c11,2.72,18.58,8.93,21.78,19.47,4.67,15.37-4.22,30.27-20.5,35a52.63,52.63,0,0,1-14.79,2c-13.15,0-26.31-.12-39.46.07-3.27,0-4.11-.84-4.09-4.1,0.12-34,.07-67.93.09-101.9,0-1.83-.79-4.1,2.64-4,15.64,0.43,31.32-.87,46.92.77,10.62,1.12,19.37,5.72,24.7,15.49,7.33,13.43,2.45,28.37-11.34,34.77C347.18,627.94,345.33,628.65,343,629.61Zm-39,24.89c0,4.82.06,9.65,0,14.47,0,1.92.2,3.08,2.62,3,8.15-.17,16.32.19,24.44-0.3,7.4-.45,13.53-3.52,15.94-11.29,3.76-12.11-3.88-22.71-17-23.33-7.64-.36-15.3,0-22.95-0.19-2.46-.05-3.1.8-3,3.13C304.19,644.85,304.07,649.68,304.07,654.5Zm0-48.25c0,4.49,0,9,0,13.46,0,1.76-.1,3.3,2.47,3.18,8.28-.37,16.62.73,24.86-0.67,9.14-1.56,13.8-7.16,13.65-16.05-0.14-8.42-5.23-14.06-14-15.34-8.1-1.19-16.26-.28-24.38-0.6-2.41-.09-2.66,1.16-2.63,3.07C304.13,597.62,304.07,601.94,304.07,606.26Z" transform="translate(-242.45 -30.6)"/><path class="cls-2" d="M460.59,631.5c0,16.83-.09,33.66.08,50.49,0,3.35-1,4.42-4.19,4.06-4.57-.51-10.7,2-13.32-1-2.26-2.61-.74-8.56-0.76-13,0-10.16-.13-20.33.05-30.49,0.05-3-.72-4-3.87-3.94q-22,.26-44,0c-3.29,0-3.76,1.09-3.73,4,0.14,13.5-.05,27,0.15,40.49,0,3.33-.92,4.3-4.15,4.07-4.46-.33-10.29,1.44-13-0.78s-0.88-8.39-.89-12.81c-0.08-30.49,0-61-.13-91.48,0-3.78.74-5.45,4.83-4.94,4.25,0.54,9.85-1.77,12.49.88s0.73,8.22.78,12.5c0.11,10,.14,20,0,30,0,3,.46,4.32,4,4.27,14.49-.22,29-0.2,43.49,0,3.38,0,4.16-1.08,4.12-4.25-0.15-13,.06-26-0.15-39-0.06-3.53,1-4.72,4.47-4.4a50.55,50.55,0,0,0,9.49,0c3.59-.35,4.43,1,4.4,4.46C460.5,597.51,460.59,614.51,460.59,631.5Z" transform="translate(-242.45 -30.6)"/><path class="cls-2" d="M816.61,686c6.68-18.76,13.11-36.87,19.59-55,6.15-17.18,12.41-34.33,18.43-51.55,0.93-2.66,2.05-3.67,4.91-3.52,5.64,0.29,12.7-1.84,16.57.82s4.5,9.89,6.39,15.17q16.06,44.74,32,89.51c0.49,1.38.89,2.79,1.34,4.2a5.31,5.31,0,0,1-1.15.31c-5.66,0-12.33,1.8-16.69-.59s-4.82-9.74-6.24-15.08c-1.48-5.58-4.28-7-9.82-6.75-11.64.49-23.31,0.24-35,.08-2.77,0-4.16.72-5,3.44-1.66,5.39-3.82,10.62-5.46,16-0.72,2.36-1.87,3.05-4.22,3C827.35,685.9,822.36,686,816.61,686Zm49.81-87.87c-1.22,3.37-2.08,5.68-2.9,8q-6.91,19.69-13.8,39.39c-0.63,1.79-2.27,3.92,1.62,3.9,10.78,0,21.55,0,32.94,0Z" transform="translate(-242.45 -30.6)"/><path class="cls-2" d="M564.2,686c-5.82,0-11.28-.14-16.73.06-2.41.09-2.64-1.53-3.17-3-1.89-5.32-3.77-10.64-5.53-16-0.74-2.27-1.72-3.47-4.48-3.43q-19.74.25-39.48,0c-2.72,0-3.76,1.06-4.51,3.4-1.73,5.37-3.73,10.65-5.48,16-0.71,2.17-1.73,3.14-4.2,3-5.1-.22-10.21-0.07-15.8-0.07L485,629.79c6-16.72,12.05-33.41,17.86-50.18,1-2.91,2.37-3.85,5.29-3.62,5.59,0.45,12.52-2.16,16.46,1,3.68,2.92,4.34,9.72,6.19,14.86q16,44.52,31.85,89.06C563.16,682.42,563.59,684,564.2,686ZM514.6,598.08c-5.93,16.87-11.48,32.79-17.16,48.67-1,2.73.48,2.7,2.34,2.69,7.15,0,14.3,0,21.45,0,11.33,0,11.36,0,7.65-10.64C524.25,625.52,519.58,612.27,514.6,598.08Z" transform="translate(-242.45 -30.6)"/></svg>