<svg id="Lager_1" data-name="Lager 1" xmlns="http://www.w3.org/2000/svg" viewBox="0 0 1029.18 367.33"><defs><style>.cls-1{fill:#d88871;}.cls-2{fill:#070707;}</style></defs><title>bhagwan-logo</title><path class="cls-1" d="M295.7,539.67c-44.76,0-85.26-15.51-120.38-46.1-29.17-25.4-48.2-56.68-56.58-93-14.84-64.31-.13-121.31,43.73-169.43,35.59-39,80.07-58.84,132.2-58.84,2.48,0,5,0,7.51.14,69.67,2.54,122.55,35.45,157.18,97.84,13.14,23.67,20.19,50.51,21,79.76,1.19,44.69-12.12,85.07-39.56,120-0.3.38-.58,0.78-0.87,1.18a11.84,11.84,0,0,1-4.52,4.33c-4.31,7.09-10.47,12.4-16.44,17.53l-2.38,2.05a176.9,176.9,0,0,1-99.82,43.38A206.44,206.44,0,0,1,295.7,539.67Zm-131.31-65.5,0.54,0.54c0.27,0.26.53,0.51,0.78,0.78A174.83,174.83,0,0,0,189,496.83c32.39,24.28,68.12,36.59,106.18,36.59h0A198.11,198.11,0,0,0,336,529c35.08-7.41,66.06-25.37,92.08-53.36a8.59,8.59,0,0,0,.63-0.83,6.45,6.45,0,0,1,3.08-2.71,5.47,5.47,0,0,1,1.6-2.46,5.41,5.41,0,0,0,.5-0.53l0.57-.8c3.14-4.41,6.39-9,9.71-13.38a11,11,0,0,0,.63-0.91,8.22,8.22,0,0,0-1-.33,144.51,144.51,0,0,0-40.1-5.89,132.76,132.76,0,0,0-43.54,7.42c-14.75,5.11-28,13.7-40.9,22l-4.11,2.65c-19,12.19-39,18.38-59.54,18.38a119,119,0,0,1-39.54-7.14,138.63,138.63,0,0,1-18.24-8.48c-4.2-2.21-8.54-4.49-12.95-6.38C179.7,474,175.42,473,171.42,473A21.23,21.23,0,0,0,164.39,474.17ZM211.21,371a110.63,110.63,0,0,1,36.11,6.42c13.24,4.58,24.3,13.07,35,21.29L282.7,399c13.64,10.47,25.35,15.15,38,15.15,1.57,0,3.17-.08,4.76-0.23,22.09-2.11,38.54-8,51.75-18.46a134.14,134.14,0,0,1,23.55-14.86c17.56-8.75,36.24-13,57.1-13,4.81,0,9.8.24,14.83,0.71l0.81,0.09,0.59,0.07c0-.11,0-0.24,0-0.4l0-1.55c0.17-11.53.36-23.45-1.31-35a3.62,3.62,0,0,0-2.5-3.25,41.9,41.9,0,0,0-46.9,9.4c-3,3.19-6,6.53-9,10a30.75,30.75,0,0,1-19.67,10.6,42.23,42.23,0,0,1-5.8.4c-8.18,0-15.72-2.26-22-4.48-29.07-10.22-58-23.43-88.32-40.39L275.48,312c-8.72-4.91-17.74-10-27.52-12.79a62.31,62.31,0,0,0-17.11-2.61c-11.54,0-21.49,4-30.41,12.08q-2,1.8-3.94,3.62c-2.57,2.37-5.22,4.83-7.91,7.18-12,10.53-25.07,15.86-38.73,15.86a62.18,62.18,0,0,1-22.65-4.56,47.23,47.23,0,0,1-5.38-2.65l-0.15-.08c-4.39,28.35-2.47,55,5.87,81.19,6.17-3.16,11.52-7.5,16.71-11.71,2.59-2.1,5.27-4.27,8-6.28C170.69,377.81,190.52,371,211.21,371Zm6.42-162.81a62.28,62.28,0,0,1,19,2.81c14.34,4.51,23.47,15.22,30.51,25.1l1.49,2.1c3.81,5.39,7.75,11,12.75,15.24,17.79,15.21,38.84,22.92,62.56,22.92a127.38,127.38,0,0,0,22.83-2.17c18.46-3.38,36.23-10.51,53.42-17.41,5.85-2.35,11.91-4.78,17.91-7a5.19,5.19,0,0,0,.86-0.4,9.06,9.06,0,0,0-.84-1.17c-37.4-46.11-84.68-69.49-140.51-69.49a223.18,223.18,0,0,0-28,1.83c-18,2.29-36.73,8.6-57.24,19.28a95.76,95.76,0,0,0-17.48,11.29c0.94-.17,1.87-0.34,2.79-0.54A94.37,94.37,0,0,1,217.63,208.2Z" transform="translate(-113.14 -172.35)"/><path class="cls-1" d="M434,474c-4.69,8-11.93,13.75-18.77,19.7a174.68,174.68,0,0,1-98.72,42.9C263.64,542,216.78,527,176.63,492.07c-28.31-24.66-47.49-55.27-55.94-91.9-14.59-63.2-.56-119.56,43.26-167.63,36.92-40.5,83.9-60,138.16-58.05,69.58,2.53,121.7,35.92,155.5,96.82,13.5,24.32,20,50.78,20.72,78.84,1.18,44.43-11.77,83.88-39.13,118.73-1.5,1.9-2.66,4.26-5.21,5.16-1-1.86.71-2.64,1.5-3.75,3.38-4.74,6.75-9.49,10.25-14.14,1.72-2.28,2-3.41-1.38-4.37-28.47-8.23-56.75-8.18-84.85,1.56-16.53,5.73-30.88,15.52-45.44,24.87-30.66,19.71-63,23.13-97.34,11-10.92-3.85-20.52-10.29-31.06-14.81-7.86-3.36-15.82-5-24.09-1.28,0.34,1.79,1.67,2.64,2.66,3.71a176.92,176.92,0,0,0,23.51,21.58c44.62,33.44,94.37,44,148.63,32.53,36.76-7.77,67.58-26.47,93.13-54C430.72,475.72,431.45,473.35,434,474ZM126.36,412c10.49-4.77,18.26-12.73,27.1-19.17,28.7-20.91,59.87-25.05,93.2-13.52,13.09,4.53,24,12.94,34.81,21.28,13,10,27,17,44.13,15.32,19.22-1.84,37.31-6.6,52.8-18.89a131.51,131.51,0,0,1,23.2-14.63c22.41-11.17,46.16-14.4,70.86-12.1,1.91,0.18,3.56.86,3.61-2.2,0.18-12.32.46-24.64-1.3-36.9a5.6,5.6,0,0,0-3.69-4.8,43.83,43.83,0,0,0-49.14,9.86c-3.1,3.26-6.07,6.64-9,10a28.9,28.9,0,0,1-18.44,9.94c-9.4,1.31-18.29-1-26.88-4a565.3,565.3,0,0,1-88-40.25c-10-5.6-19.9-11.51-31.07-14.72-18.19-5.23-34.93-3.29-49.42,9.91-3.94,3.59-7.81,7.26-11.82,10.77-17.6,15.39-37.32,19.58-59.34,10.95-2.58-1-5-2.51-7.79-4C115.14,354.68,116.9,383.48,126.36,412Zm62.19-197.85c3.16-.54,6.35-1,9.48-1.65,12.69-2.75,25.36-3.56,38,.4,13.1,4.12,21.83,13.61,29.48,24.35,4.45,6.24,8.72,12.7,14.56,17.7,25.4,21.7,55.21,27,87.05,21.2,25-4.57,48-15.66,71.67-24.53,3.23-1.21,2.53-2.65.87-4.7q-66.16-81.57-170.34-68.39c-20.49,2.61-39.66,10-57.91,19.49C203.19,202.3,195.34,207.27,188.55,214.16Z" transform="translate(-113.14 -172.35)"/><path class="cls-2" d="M599.63,344.87c19,12.17,23,40.54,8.21,54.49-6.95,6.55-15.49,9-24.72,8.78-13.46-.31-26.89-1.75-40.38-0.3-2.54.27-5.91,0.71-6.76-2.62s2-5.31,4.73-6c4.83-1.34,5.56-4.31,5.67-8.85,0.62-25.15.74-50.29-.14-75.44-0.14-4-1.32-6.08-5.16-7.06-2.55-.65-5.08-1.69-6.78-3.95-2.7-3.59-1.18-7.56,3.27-8a31.11,31.11,0,0,1,8,.29c12,1.86,23.93-.27,35.9-0.1,10.4,0.15,18.58,4.89,25,12.51,5.87,6.94,4.11,15,1.8,22.78A29.61,29.61,0,0,1,599.63,344.87Zm-37.9,29.55h-0.16q0,5.48,0,11c0,11,3.26,14.39,14.44,14.73a39.26,39.26,0,0,0,7-.38,25.15,25.15,0,0,0,20.72-19.62c2.17-9.44-1.61-18.55-10.08-24.09s-17.66-5.1-26.92-3.67c-3.21.49-4.93,3.2-4.94,6.62C561.72,364.13,561.73,369.28,561.73,374.43Zm-1.36-49.31h-0.13c0,3.32-.18,6.66,0,10,0.45,7,3.78,9.8,10.71,9.37a56.17,56.17,0,0,0,11.3-1.66c9.74-2.66,14.46-10.66,13.78-23.48-0.44-8.39-5.33-13.39-15.14-14.84a45,45,0,0,0-11.42-.11c-6,.67-8.45,3.21-9.06,9.3C560.06,317.44,560.37,321.29,560.37,325.12Z" transform="translate(-113.14 -172.35)"/><path class="cls-2" d="M706.86,354.62c-1.2,17.8-8.53,32.91-22.64,44.54A24.79,24.79,0,0,1,669.63,405c-2.73.15-6.08,1-7.38-2.5s-1.17-6.94,1.41-9.89c3.4-3.89,7.94-5.9,12.68-7.63a28.27,28.27,0,0,0,18.52-31c-1.4-9.77-7.11-13-15.87-8.43-19.42,10.12-31.19,25.51-32,48.07a19.09,19.09,0,0,1-2.3,8.59c-1.39,2.54-3.54,4-6.54,3.67s-4.51-2.31-5.32-5.16c-1.75-6.21-.37-12.28.91-18.25,4.46-20.81,11.57-40.9,16.72-61.53,3-11.92,5.89-23.86,8.92-35.78,1.61-6.33,1-11.61-4.87-15.87-4-2.9-3.15-6.21,1.42-8.25a23.47,23.47,0,0,1,13.66-1.71c5.89,1,9.28,5.74,7.67,11.73-2.24,8.32-5.41,16.38-7.78,24.67-4.38,15.32-8.62,30.69-12.05,46.27-0.42,1.9-1.4,4.06.65,5.49s3.78-.34,5.4-1.31c4.7-2.82,9.26-5.9,14-8.69,6.65-3.94,13.66-6.66,21.12-2.41S706.23,346.85,706.86,354.62Z" transform="translate(-113.14 -172.35)"/><path class="cls-2" d="M836.27,333c6.85,0,12.51,2.11,18.07,4.24,4.41,1.69,8.47,3.35,13.31,1.47a5.43,5.43,0,0,1,6.4,1.5c3,3.64,1.78,7.7-3.08,9s-8.17,3.5-9,9.11c-2.46,17.29-11.24,26.21-28.62,29.44a11.92,11.92,0,0,0-6.91,3.47c-5,5.32-4.75,10.11,1.45,13.85,6.53,3.94,13.39,7.34,20.12,11a36.25,36.25,0,0,1,9.51,7.18c8.52,9.17,6.69,21.09-4.24,27.26-8.21,4.63-17.3,6-26.46,6.09-10.7.07-21.23-1.68-30.94-6.53-6.92-3.46-12.67-8-13.09-16.71a13.21,13.21,0,0,1,6.53-12.58,37.21,37.21,0,0,1,18.83-5.69c1.82-.08,3.66.12,5.4-0.69,1.92-.9,2.94-1.68,1.36-4.07-6.82-10.29-6.61-11.95,1.55-21.1,4.88-5.47,4.91-5.95,1-12.22a29.87,29.87,0,0,1,9.19-41.15A15.42,15.42,0,0,1,836.27,333Zm-14.41,88.09a47.06,47.06,0,0,0-20.52,3.28c-3.63,1.53-6.76,3.77-7.1,8.21a9.66,9.66,0,0,0,5.66,9.8c14.29,7,28.87,8.55,43.51,1,3.87-2,6.84-5,6.52-9.78s-3.62-7.32-7.62-9A45.93,45.93,0,0,0,821.86,421.08ZM850,355.65c0.49-8.82-1.59-13.18-5.43-14.65-4.2-1.61-9.18,0-12.78,4.47a34,34,0,0,0-7.53,22.19c0,4.63,1.61,9,6.64,10.69,4.61,1.5,8.09-1.07,10.88-4.25A33.67,33.67,0,0,0,850,355.65Z" transform="translate(-113.14 -172.35)"/><path class="cls-2" d="M934.76,378.9c-4.73,3-8.31,6.67-12.08,10.1-5.91,5.38-11.53,11.11-18.53,15.13-2.13,1.23-4.51,2.79-7,1.12s-1.39-4.29-1-6.47c1.7-10.15,3.71-20.26,5.35-30.42a41,41,0,0,0-1.29-18.75c-0.8-2.6-1.94-5-5.33-5-3.05,0-5.32.86-4.88,4.58,0.18,1.47.82,3.18-1.42,3.54s-3.7-.85-4.62-2.93c-2.82-6.4.52-16.16,6.59-19.05,5.55-2.65,14.06.55,17.41,6.9,4,7.62,4.36,15.95,3.72,24.32-0.37,4.8-1.11,9.58-1.57,14.38s2.46,7.28,6.78,5.38c14.34-6.31,22.3-13.91,21.1-30.08-0.29-3.89-1.27-7.71-5.31-9.49s-7.41,0-10.48,2.6c-1,.86-2,1.78-3,2.58-1.25.95-2.47,2.87-4.22,1.31-1.5-1.34-.43-3.23.17-4.67,2.53-6,12.87-11.75,19.4-10.87s11.62,7.32,12.48,15.51-1.45,16.19-1.75,24.32a33.29,33.29,0,0,0,.09,5.45c1.05,8.19,5.78,10.15,12.26,4.82a35.24,35.24,0,0,0,12.24-20.62c1.57-7.66-4.2-12.43-11.75-10-2.05.66-4,1.62-6.06,2.29A2.44,2.44,0,0,1,949,354c-0.94-1.41-.3-2.48.6-3.55,3.69-4.36,17.62-7.84,22.88-5.64s6,6.73,5.81,11.6c-0.42,10-4.39,18.6-10.23,26.54-7,9.44-15.35,17-26.44,21.28-3,1.16-6.33,2.86-9.26-.24-2.73-2.89-1.54-6.26-.67-9.43,0.79-2.88,2-5.65,2.89-8.48A10.85,10.85,0,0,0,934.76,378.9Z" transform="translate(-113.14 -172.35)"/><path class="cls-2" d="M1120.11,405c-7.25.07-10.38-3.89-8.88-11.46,1.35-6.77,4.52-12.82,7.84-18.78,3.07-5.52,6.15-11,8.23-17a21.33,21.33,0,0,0,1.34-7.32c-0.06-3.39-1.61-4.55-4.79-2.75a29,29,0,0,0-8.43,7.69,227.61,227.61,0,0,0-25.69,40.27,49,49,0,0,1-3.41,6.07c-2.25,3.31-5.28,5.12-9.4,3.7-4.33-1.5-4.83-5.29-4.62-9,0.27-4.69,2.11-9,4.16-13.23,4.35-9,8.73-17.91,10.93-27.71a16.1,16.1,0,0,0,.59-2.93c0.07-2.3.46-5.14-1.77-6.31-2-1-3.47,1.35-5,2.51-0.27.2-.49,0.46-0.76,0.64-2.19,1.48-4.3,5.22-7.08,2.56-3-2.86-.09-6,2-8.19,5-5.21,10.55-9.8,18.08-10.63,5.13-.57,6.67,1.15,6.28,6.3-0.48,6.18-3.21,11.85-4.2,17.91-0.42,2.56-1.87,6,.91,7.29,2.45,1.15,4.16-2.13,5.73-3.92,6.13-7,11-15.08,18-21.38a28.45,28.45,0,0,1,7.36-5c8.69-3.89,15.56,1,14.73,10.45-0.5,5.71-2.59,11-4.88,16.13-3.23,7.29-6.58,14.52-9.81,21.8a30.62,30.62,0,0,0-1.58,4.71c-0.42,1.6-1,3.51.78,4.52a4.38,4.38,0,0,0,4.72-.58c1.76-1.25,3.46-2.58,5.23-3.82,1.5-1,3.28-2.4,4.89-.84s0.6,3.45-.19,5.12C1138.52,397.7,1126.88,405,1120.11,405Z" transform="translate(-113.14 -172.35)"/><path class="cls-2" d="M764.22,394.22c0.31-1.74.86-4.67,1.36-7.61,0.19-1.14.61-2.59-.45-3.27-1.26-.81-2.05.67-2.82,1.39-3.63,3.43-7.12,7-10.79,10.39a106.91,106.91,0,0,1-8.74,7.42c-3.88,2.88-8.15,4.9-12.9,2s-6.1-7.77-5.68-13A45.83,45.83,0,0,1,729,374.36c6.78-13.39,15.52-25.16,27.92-33.93A44.51,44.51,0,0,1,776.28,333c3.61-.56,7.19-1.21,10.18-3.64,1.42-1.16,3.22-2.37,5-1.1,2,1.41,1.32,3.62.6,5.5-3.49,9.14-7.1,18.24-10.6,27.39-2.55,6.67-4.94,13.4-6,20.51-0.5,3.26-.61,6.49,2.7,8.31s5.25-.83,7.27-2.72c2.55-2.38,5-4.9,7.47-7.34a2.4,2.4,0,0,1,2.68-.83c1.33,0.57,1.27,1.87,1.11,3a8.92,8.92,0,0,1-.84,2.86,44.37,44.37,0,0,1-17.91,18.91C770.3,408.1,764.09,404,764.22,394.22Zm-28.3-11.56c-0.1,7,2.85,9.12,8.59,7a21.72,21.72,0,0,0,6.72-4.24,94.64,94.64,0,0,0,20.6-26.1,40.24,40.24,0,0,0,2.93-7.92c1-3.48-.25-5.33-4.11-5.49a17.83,17.83,0,0,0-11.7,3.53,65,65,0,0,0-21.33,26.47A17.22,17.22,0,0,0,735.92,382.66Z" transform="translate(-113.14 -172.35)"/><path class="cls-2" d="M1028.41,382.28c-4.41,4.27-8.32,8.06-12.21,11.85-3.7,3.6-7.43,7.19-12,9.76-7.54,4.28-14.89.69-16.23-7.92a27.46,27.46,0,0,1,1.73-14.22c7.79-20.19,19.7-36.88,40.05-46.16,3.34-1.53,7-2,10.61-2.63,3.23-.6,6.54-1,9.24-3.3,1.5-1.27,3.47-2.78,5.37-1.26s1.14,4,.36,6c-3,7.76-6,15.5-9,23.24a146.19,146.19,0,0,0-6.74,20.3,21,21,0,0,0-.68,7.91c0.71,4.6,4.26,6.15,7.88,3.21,3.09-2.51,5.77-5.51,8.66-8.27,1.06-1,2.18-2.57,3.78-1.55s1.11,2.88.56,4.13c-4.31,9.76-10.93,17.6-21,21.49-6.12,2.36-10.78-1.6-10.87-8.31,0-2.31.43-4.62,0.63-6.93C1028.79,387.52,1029.6,385.42,1028.41,382.28Zm-29,2.11c-0.28,5.28,3,7.56,9.12,5a25.67,25.67,0,0,0,7.79-5.32,94.84,94.84,0,0,0,19-24.84,46.9,46.9,0,0,0,3.1-8.38c0.92-3.13-.53-4.66-3.73-4.94-5.12-.45-9.51,1.32-13.43,4.35a67.33,67.33,0,0,0-20,25.13C1000.19,377.85,999.75,380.47,999.44,384.39Z" transform="translate(-113.14 -172.35)"/></svg>