<?xml version="1.0" encoding="utf-8"?>
<!-- Generator: Adobe Illustrator 19.2.0, SVG Export Plug-In . SVG Version: 6.00 Build 0)  -->
<svg version="1.1" id="Lager_1" xmlns="http://www.w3.org/2000/svg" xmlns:xlink="http://www.w3.org/1999/xlink" x="0px" y="0px"
	 viewBox="0 0 798.8 656.4" style="enable-background:new 0 0 798.8 656.4;" xml:space="preserve">
<style type="text/css">
	.st0{fill:#ECC5AD;}
	.st1{fill:#FFFFFF;}
</style>
<title>bhagwanlogo3</title>
<path class="st0" d="M476.7,182.1c0.2,37-8,68.5-21,99.1c-13.5,31.7-31.9,60.1-53.2,87c-2.8,3.6-4.2,3-6.5,0
	c-14-17.8-27.2-36.1-38-56.1c-13.6-24.9-24.6-50.9-30.9-78.7c-4.6-20.4-6.9-41-5.3-61.8c2.3-28.1,9.5-55.2,20.7-81.2
	c13.8-32,32.3-61.1,53.9-88.4c2.1-2.6,3.3-3.2,5.9,0c16.8,20.5,31.4,42.6,43.7,66.1c13.7,26.4,23.7,54.2,28.5,83.6
	C476.2,163.1,477.3,174.3,476.7,182.1z"/>
<path class="st0" d="M615.8,477.5c-35.2,0.6-66.5-7.7-96.8-20.5c-32.1-13.5-61.2-32.2-88.4-53.9c-3.2-2.6-2.7-3.6,0.2-6
	c21-17,43.3-32.2,67.4-44.4c25.6-13,52.3-23.1,80.9-27.4c12.3-1.9,24.7-3.2,37.2-3c21.8,0.3,43,4.2,63.7,10.4
	c43.2,13,81,36,116.1,63.8c3.5,2.8,3.6,4.2-0.1,7.2c-22.7,18.2-46.8,34.1-72.9,46.8s-53.3,21.5-82,25.6
	C632.7,477.4,624.2,477.8,615.8,477.5z"/>
<path class="st0" d="M187.8,477.5c-37.6,0.4-70.1-8.5-101.4-22.2C56.1,442.1,28.6,424.5,2.8,404c-3.3-2.6-4.2-4.2-0.2-7.4
	c17.7-14.4,36.6-27.2,56.5-38.4c25.5-14.2,52.4-25.3,81.1-31.1c23-4.7,46.2-6.1,69.8-3c51.5,6.7,96.6,28.3,138.1,58.2
	c6.7,4.9,13.3,10,19.9,15c2.4,1.8,3.1,3.1,0,5.6c-23.3,18.7-47.9,35.4-74.9,48.2c-25.8,12.3-52.7,21.1-81.1,25.1
	C204,477.3,195.9,477.8,187.8,477.5z"/>
<path class="st0" d="M479.5,320.5c6.6-14.9,12.9-29.4,18-44.3c6.5-18.5,11.2-37.5,14.1-56.9c1.8-12.6,1.9-25.2,1.8-37.8
	c-0.1-2.5,1.1-4.9,3.1-6.2c26.5-20.2,56.3-33.9,88-43.7c22.5-7,45.7-11.7,69.1-14.1c9.1-0.9,9-0.8,7.9,8.9
	c-3.6,34.2-12,67.7-25.1,99.6c-8,19.5-18.6,37.5-30.7,54.7c-2.6,3.7-5.7,5.1-10.4,5c-40.2-0.4-78.3,9.2-114.8,25.3
	C493.5,314,486.5,317.3,479.5,320.5z"/>
<path class="st0" d="M319.8,320.6c-9.1-4.1-17.2-7.8-25.4-11.3c-25.8-11.1-52.4-18.9-80.4-22c-11.1-1.2-22.2-2.2-33.3-1.8
	c-2.7,0.2-5.3-1.1-6.7-3.4c-15.2-21.2-27.6-44.4-36.7-68.9c-9.5-25.3-15.1-51.6-19.5-78.1c-0.8-4.7-0.4-9.7-1.4-14.3
	s1.4-4.6,4.4-4.1c9.2,1.3,18.4,2.5,27.5,4.1c35.3,6.2,69.1,16.7,100.8,33.6c10.9,6,21.5,12.7,31.6,20c2.8,2,4,4.4,3.9,8
	c-0.3,39.5,8.4,77.1,23.9,113.2C312,303.6,315.7,311.5,319.8,320.6z"/>
<path class="st1" d="M469.2,632.8c7.5-27.2,15.1-54.2,22.2-81.4c1.3-4.8,3.3-6.7,8-5.9c0.8,0.1,1.7,0.1,2.5,0
	c11.6,0,11.6,0,14.5,11.5c6.4,25.1,12.9,50.2,19.3,75.3c1.7-0.2,1.5-1.5,1.7-2.5c6.9-26.7,13.9-53.4,20.6-80.1
	c0.8-3.2,2-4.4,5.3-4.2c4.8,0.3,9.7,0.1,15.1,0.1c-3.1,10.6-6.1,20.9-9.1,31.1c-7.3,24.8-14.8,49.7-22,74.5
	c-0.9,3.2-2.2,4.7-5.7,4.3c-4-0.3-8-0.3-12,0c-3.2,0.2-4.5-0.8-5.3-4.1c-6.5-24-13.2-48-19.8-72c-0.4-1.6-0.9-3.1-1.5-5
	c-1.9,1.4-1.9,3.3-2.4,4.9c-7.1,24.1-14.2,48.1-21.2,72.2c-0.8,3-2,4.3-5.3,4.1c-5.3-0.4-11.8,1.6-15.6-0.8s-3.5-9.5-5-14.6
	c-8.5-29.9-16.8-59.8-25.5-89.6c-1.3-4.5-0.4-5.5,3.9-5c4.6,0.5,10.4-1.9,13.5,1c2.8,2.5,2.8,8.2,3.9,12.5
	c6.1,23.8,12.1,47.6,18.1,71.4C467.6,631.5,468.2,632.5,469.2,632.8z"/>
<path class="st1" d="M695.9,575.5V597c0,18-0.1,36,0.1,54c0,3.2-0.3,4.9-4.2,4.5c-4.5-0.4-10.4,1.5-13-0.8c-3-2.6-0.9-8.8-0.9-13.3
	c-0.1-30.3,0-60.6-0.1-90.9c0-3.6,0.6-4.7,4.7-5.2c10.2-1.3,15.9,2.8,21.3,11.4c14.4,23.3,30,45.9,45.4,69c1.5-1.7,0.9-3.6,0.9-5.2
	c0-23.5,0.1-47-0.1-70.5c0-3.7,0.8-5.1,4.7-4.6c4.4,0.6,10.3-1.9,12.8,1c2.2,2.5,0.8,8.2,0.8,12.5c0,30.6-0.1,61.3,0.1,91.9
	c0,3.8-1.1,4.2-4.7,4.7c-10.2,1.4-15.9-2.6-21.3-11.3c-13.5-22-28.2-43.2-42.4-64.7c-1-1.5-2-2.9-3-4.4L695.9,575.5z"/>
<path class="st1" d="M426.9,577.3c-6.2,0-12.3-0.1-18.5,0c-1.9,0-2.9-0.7-4-2.2c-8.9-12.7-22.7-17.3-38.2-13
	c-15,4.1-25.4,16.5-26.8,31.2c-1,11.5-0.2,22.7,7.2,32.2c10.6,13.9,25,16.9,41,12.7c14.4-3.7,21.2-14.3,23.8-29
	c-12.2,0-24.1-0.2-36,0.1c-4.1,0.1-5.3-0.9-5.2-5.1c0.3-9,0.1-9.1,9.1-9.1h45c6.4,0,6.1,0,6.5,6.6c1.5,25.2-18.6,48.7-42.8,53.4
	c-27.1,5.2-53.7-7.5-63.2-32c-16.6-42.7,14-80.9,53.7-78.9c21.5,1.1,37.9,10,47.5,29.9c0.3,0.6,0.5,1.2,0.7,1.9
	C426.9,576.5,426.9,576.9,426.9,577.3z"/>
<path class="st1" d="M100.6,599c11,2.7,18.6,8.9,21.8,19.5c4.7,15.4-4.2,30.3-20.5,35c-4.8,1.4-9.8,2-14.8,2
	c-13.1,0-26.3-0.1-39.5,0.1c-3.3,0-4.1-0.8-4.1-4.1c0.1-34,0.1-67.9,0.1-101.9c0-1.8-0.8-4.1,2.6-4c15.6,0.4,31.3-0.9,46.9,0.8
	c10.6,1.1,19.4,5.7,24.7,15.5c7.3,13.4,2.5,28.4-11.3,34.8C104.7,597.3,102.9,598.1,100.6,599z M61.6,623.9c0,4.8,0.1,9.7,0,14.5
	c0,1.9,0.2,3.1,2.6,3c8.1-0.2,16.3,0.2,24.4-0.3c7.4-0.5,13.5-3.5,15.9-11.3c3.8-12.1-3.9-22.7-17-23.3c-7.6-0.4-15.3,0-23-0.2
	c-2.5,0-3.1,0.8-3,3.1C61.7,614.2,61.6,619.1,61.6,623.9L61.6,623.9z M61.6,575.7c0,4.5,0,9,0,13.5c0,1.8-0.1,3.3,2.5,3.2
	c8.3-0.4,16.6,0.7,24.9-0.7c9.1-1.6,13.8-7.2,13.6-16c-0.1-8.4-5.2-14.1-14-15.3c-8.1-1.2-16.3-0.3-24.4-0.6
	c-2.4-0.1-2.7,1.2-2.6,3.1C61.7,567,61.6,571.3,61.6,575.7L61.6,575.7z"/>
<path class="st1" d="M218.1,600.9c0,16.8-0.1,33.7,0.1,50.5c0,3.3-1,4.4-4.2,4.1c-4.6-0.5-10.7,2-13.3-1c-2.3-2.6-0.7-8.6-0.8-13
	c0-10.2-0.1-20.3,0-30.5c0-3-0.7-4-3.9-3.9c-14.7,0.2-29.3,0.2-44,0c-3.3,0-3.8,1.1-3.7,4c0.1,13.5,0,27,0.1,40.5
	c0,3.3-0.9,4.3-4.1,4.1c-4.5-0.3-10.3,1.4-13-0.8s-0.9-8.4-0.9-12.8c-0.1-30.5,0-61-0.1-91.5c0-3.8,0.7-5.5,4.8-4.9
	c4.2,0.5,9.9-1.8,12.5,0.9s0.7,8.2,0.8,12.5c0.1,10,0.1,20,0,30c0,3,0.5,4.3,4,4.3c14.5-0.2,29-0.2,43.5,0c3.4,0,4.2-1.1,4.1-4.2
	c-0.1-13,0.1-26-0.1-39c-0.1-3.5,1-4.7,4.5-4.4c3.2,0.3,6.3,0.3,9.5,0c3.6-0.3,4.4,1,4.4,4.5C218.1,566.9,218.1,583.9,218.1,600.9z"
	/>
<path class="st1" d="M574.2,655.4c6.7-18.8,13.1-36.9,19.6-55c6.2-17.2,12.4-34.3,18.4-51.5c0.9-2.7,2-3.7,4.9-3.5
	c5.6,0.3,12.7-1.8,16.6,0.8s4.5,9.9,6.4,15.2c10.7,29.8,21.4,59.7,32,89.5c0.5,1.4,0.9,2.8,1.3,4.2c-0.4,0.1-0.8,0.3-1.2,0.3
	c-5.7,0-12.3,1.8-16.7-0.6s-4.8-9.7-6.2-15.1c-1.5-5.6-4.3-7-9.8-6.8c-11.6,0.5-23.3,0.2-35,0.1c-2.8,0-4.2,0.7-5,3.4
	c-1.7,5.4-3.8,10.6-5.5,16c-0.7,2.4-1.9,3-4.2,3C584.9,655.3,579.9,655.4,574.2,655.4z M624,567.5c-1.2,3.4-2.1,5.7-2.9,8
	c-4.6,13.1-9.2,26.3-13.8,39.4c-0.6,1.8-2.3,3.9,1.6,3.9c10.8,0,21.5,0,32.9,0L624,567.5z"/>
<path class="st1" d="M321.8,655.4c-5.8,0-11.3-0.1-16.7,0.1c-2.4,0.1-2.6-1.5-3.2-3c-1.9-5.3-3.8-10.6-5.5-16
	c-0.7-2.3-1.7-3.5-4.5-3.4c-13.2,0.2-26.3,0.2-39.5,0c-2.7,0-3.8,1.1-4.5,3.4c-1.7,5.4-3.7,10.7-5.5,16c-0.7,2.2-1.7,3.1-4.2,3
	c-5.1-0.2-10.2-0.1-15.8-0.1l20.2-56.2c6-16.7,12-33.4,17.9-50.2c1-2.9,2.4-3.8,5.3-3.6c5.6,0.5,12.5-2.2,16.5,1
	c3.7,2.9,4.3,9.7,6.2,14.9c10.7,29.7,21.3,59.4,31.8,89.1C320.7,651.8,321.1,653.4,321.8,655.4z M272.1,567.5
	c-5.9,16.9-11.5,32.8-17.2,48.7c-1,2.7,0.5,2.7,2.3,2.7c7.2,0,14.3,0,21.5,0c11.3,0,11.4,0,7.7-10.6
	C281.8,594.9,277.1,581.7,272.1,567.5z"/>
</svg>
